<?xml version="1.0" encoding="utf-8"?>
<svg xmlns="http://www.w3.org/2000/svg" viewBox="0 0 50 50" fill="#ffffff"><path d="M 47.28125 8.125 L 38.53125 9.875 C 38.214844 9.9375 38 10.242188 38 10.5625 L 38 31.65625 C 38 36.546875 29 33.507813 29 39.625 C 29 42.265625 30.164063 44 34 44 C 37.683594 44 40 41.34375 40 38.34375 L 40 17 L 47.5 15.46875 C 47.8125 15.40625 48.03125 15.132813 48.03125 14.8125 L 48.03125 8.71875 C 48.03125 8.320313 47.671875 8.046875 47.28125 8.125 Z M 2 10 L 2 12 L 33 12 L 33 10 Z M 2 18 L 2 20 L 33 20 L 33 18 Z M 2 26 L 2 28 L 33 28 L 33 26 Z M 2 34 L 2 36 L 26 36 L 26 34 Z M 2 42 L 2 44 L 26 44 L 26 42 Z" fill="#ffffff"/></svg>
