<?xml version="1.0" encoding="utf-8"?>
<svg xmlns="http://www.w3.org/2000/svg" viewBox="0 0 26 26" fill="#000000"><path d="M 12.03125 1.0625 C 11.710938 1.066406 11.355469 1.207031 11.03125 1.53125 L 5.3125 8 L 1 8 C 0.449219 8 0 8.449219 0 9 L 0 17 C 0 17.550781 0.449219 18 1 18 L 5.3125 18 L 11 24.4375 C 12 25.4375 13 24.925781 13 23.5625 L 13 2.28125 C 13 1.488281 12.566406 1.058594 12.03125 1.0625 Z M 19.28125 3.0625 C 18.84375 3.136719 18.507813 3.492188 18.457031 3.933594 C 18.410156 4.375 18.652344 4.796875 19.0625 4.96875 C 22 6.449219 24 9.476563 24 13 C 24 16.523438 22 19.550781 19.0625 21.03125 C 18.695313 21.15625 18.4375 21.484375 18.394531 21.867188 C 18.351563 22.253906 18.535156 22.628906 18.867188 22.832031 C 19.195313 23.03125 19.613281 23.023438 19.9375 22.8125 C 23.527344 21 26 17.289063 26 13 C 26 8.710938 23.527344 5 19.9375 3.1875 C 19.765625 3.089844 19.570313 3.046875 19.375 3.0625 C 19.34375 3.0625 19.3125 3.0625 19.28125 3.0625 Z M 16.90625 6.9375 C 16.464844 6.96875 16.097656 7.289063 16.003906 7.722656 C 15.910156 8.15625 16.109375 8.601563 16.5 8.8125 C 18.042969 9.769531 19 11.289063 19 13 C 19 14.722656 18.027344 16.261719 16.46875 17.21875 C 16.136719 17.394531 15.929688 17.742188 15.933594 18.117188 C 15.9375 18.492188 16.152344 18.832031 16.492188 19 C 16.828125 19.167969 17.230469 19.128906 17.53125 18.90625 C 19.601563 17.636719 21 15.476563 21 13 C 21 10.539063 19.613281 8.367188 17.5625 7.09375 C 17.394531 6.988281 17.199219 6.933594 17 6.9375 C 16.96875 6.9375 16.9375 6.9375 16.90625 6.9375 Z" fill="#000000"/></svg>
